<?xml version="1.0" encoding="UTF-8"?>
<!DOCTYPE svg PUBLIC "-//W3C//DTD SVG 1.1//EN" "http://www.w3.org/Graphics/SVG/1.1/DTD/svg11.dtd">
<!-- Creator: CorelDRAW 2017 -->
<svg xmlns="http://www.w3.org/2000/svg" xml:space="preserve" width="34px" height="32px" version="1.1" style="shape-rendering:geometricPrecision; text-rendering:geometricPrecision; image-rendering:optimizeQuality; fill-rule:evenodd; clip-rule:evenodd"
viewBox="0 0 26.51 25.21"
 xmlns:xlink="http://www.w3.org/1999/xlink">
 <defs>
  <style type="text/css">
   <![CDATA[
    .fil1 {fill:#2B2A29;fill-rule:nonzero}
    .fil0 {fill:#494C4F;fill-rule:nonzero}
   ]]>
  </style>
 </defs>
 <g id="Слой_x0020_1">
  <metadata id="CorelCorpID_0Corel-Layer"/>
  <g>
   <path class="fil0" d="M13.26 0l0 2.38 0 0 -0.47 0.01 -0.45 0.03 -0.46 0.05 -0.44 0.07 -0.44 0.08 -0.43 0.11 -0.42 0.13 -0.42 0.14 -0.41 0.16 -0.4 0.18 -0.39 0.19 -0.38 0.21 -0.37 0.22 -0.36 0.24 -0.35 0.26 -0.33 0.26 -0.33 0.28 -0.31 0.3 -0.31 0.31 -0.28 0.32 -0.28 0.33 -0.26 0.34 -0.25 0.36 -0.23 0.36 -0.21 0.38 -0.21 0.39 -0.18 0.39 -0.17 0.4 -0.15 0.42 -0.13 0.42 -0.12 0.42 -0.09 0.44 -2.33 -0.47 0.12 -0.54 0.14 -0.52 0.16 -0.52 0.19 -0.51 0.21 -0.5 0.22 -0.49 0.25 -0.47 0.27 -0.46 0.28 -0.45 0.31 -0.44 0.32 -0.42 0.34 -0.41 0.35 -0.4 0.37 -0.38 0.39 -0.36 0.4 -0.35 0.42 -0.33 0.43 -0.31 0.44 -0.29 0.46 -0.28 0.46 -0.26 0.49 -0.24 0.49 -0.21 0.5 -0.2 0.51 -0.18 0.53 -0.15 0.53 -0.13 0.54 -0.11 0.55 -0.09 0.56 -0.06 0.56 -0.04 0.57 -0.01 0 0zm11.34 7.1l-2.14 1.04 -0.16 -0.32 -0.17 -0.31 -0.18 -0.3 -0.19 -0.3 -0.21 -0.29 -0.21 -0.28 -0.22 -0.28 -0.23 -0.26 -0.24 -0.26 -0.24 -0.25 -0.26 -0.24 -0.26 -0.24 -0.28 -0.22 -0.28 -0.21 -0.28 -0.21 -0.3 -0.19 -0.3 -0.19 -0.31 -0.17 -0.31 -0.17 -0.32 -0.15 -0.33 -0.14 -0.33 -0.14 -0.34 -0.12 -0.34 -0.1 -0.35 -0.1 -0.35 -0.08 -0.36 -0.08 -0.36 -0.06 -0.37 -0.04 -0.37 -0.04 -0.38 -0.02 -0.37 0 0 -2.38 0.46 0.01 0.46 0.02 0.46 0.04 0.45 0.06 0.45 0.08 0.44 0.08 0.43 0.11 0.43 0.12 0.43 0.13 0.41 0.15 0.41 0.16 0.41 0.18 0.39 0.19 0.39 0.2 0.38 0.21 0.37 0.23 0.36 0.24 0.36 0.26 0.34 0.26 0.34 0.28 0.32 0.28 0.32 0.3 0.3 0.31 0.29 0.32 0.29 0.32 0.27 0.34 0.26 0.35 0.25 0.35 0.23 0.37 0.23 0.37 0.21 0.39 0.2 0.39z"/>
  </g>
  <polygon class="fil1" points="19.65,7.58 24.67,12.61 26.51,5.74 "/>
  <g>
   <path class="fil0" d="M13.26 25.21l0 -2.37 0 0 0.46 -0.01 0.46 -0.03 0.45 -0.05 0.44 -0.07 0.44 -0.09 0.43 -0.11 0.43 -0.12 0.41 -0.15 0.41 -0.16 0.4 -0.17 0.39 -0.19 0.38 -0.21 0.37 -0.23 0.36 -0.24 0.35 -0.25 0.33 -0.27 0.33 -0.28 0.31 -0.29 0.3 -0.31 0.29 -0.32 0.28 -0.33 0.26 -0.35 0.24 -0.35 0.24 -0.37 0.21 -0.37 0.2 -0.39 0.19 -0.39 0.17 -0.4 0.15 -0.41 0.13 -0.42 0.12 -0.43 0.09 -0.44 2.33 0.48 -0.12 0.53 -0.14 0.53 -0.17 0.52 -0.18 0.5 -0.21 0.5 -0.23 0.49 -0.24 0.47 -0.27 0.46 -0.29 0.45 -0.3 0.44 -0.32 0.42 -0.34 0.41 -0.35 0.4 -0.38 0.38 -0.38 0.36 -0.4 0.34 -0.42 0.33 -0.43 0.32 -0.44 0.29 -0.46 0.28 -0.47 0.25 -0.48 0.24 -0.49 0.22 -0.5 0.19 -0.52 0.18 -0.52 0.15 -0.53 0.14 -0.54 0.1 -0.55 0.09 -0.55 0.06 -0.57 0.04 -0.56 0.01 0 0zm-11.35 -7.09l2.14 -1.04 0.16 0.31 0.17 0.31 0.19 0.31 0.19 0.29 0.2 0.29 0.21 0.28 0.22 0.28 0.23 0.27 0.24 0.25 0.25 0.25 0.25 0.25 0.27 0.23 0.27 0.22 0.28 0.22 0.29 0.2 0.29 0.2 0.3 0.18 0.31 0.18 0.31 0.16 0.32 0.15 0.33 0.15 0.33 0.13 0.34 0.12 0.34 0.11 0.35 0.09 0.35 0.09 0.36 0.07 0.37 0.06 0.36 0.05 0.37 0.03 0.38 0.02 0.38 0.01 0 2.37 -0.47 -0.01 -0.46 -0.02 -0.46 -0.04 -0.45 -0.06 -0.44 -0.07 -0.44 -0.09 -0.44 -0.11 -0.43 -0.12 -0.43 -0.13 -0.41 -0.15 -0.41 -0.16 -0.41 -0.18 -0.39 -0.19 -0.39 -0.2 -0.38 -0.21 -0.37 -0.23 -0.36 -0.24 -0.36 -0.25 -0.34 -0.27 -0.33 -0.27 -0.33 -0.29 -0.31 -0.3 -0.31 -0.3 -0.29 -0.32 -0.28 -0.33 -0.28 -0.34 -0.26 -0.35 -0.25 -0.35 -0.23 -0.37 -0.23 -0.37 -0.21 -0.38 -0.2 -0.39z"/>
  </g>
  <polygon class="fil1" points="6.87,17.63 1.84,12.61 0,19.47 "/>
 </g>
</svg>
